<?xml version="1.0" encoding="UTF-8"?>
<svg width="198px" height="269px" viewBox="0 0 198 269" version="1.1" xmlns="http://www.w3.org/2000/svg" xmlns:xlink="http://www.w3.org/1999/xlink">
    <!-- Generator: Sketch 54.1 (76490) - https://sketchapp.com -->
    <title>filmstrip</title>
    <desc>Created with Sketch.</desc>
    <g id="Page-1" stroke="none" stroke-width="1" fill="none" fill-rule="evenodd">
        <g id="Mobile" transform="translate(0.000000, -2173.000000)" fill="#000000" fill-rule="nonzero">
            <g id="venues" transform="translate(-73.000000, 2172.000000)">
                <g id="filmstrip">
                    <path d="M269.978313,141.932704 C269.978313,141.932704 267.508251,99.4234749 176.081742,42.7482954 C84.6552319,-13.9268841 30.2967612,2.08803562 30.2967612,2.08803562 C30.2967612,2.08803562 29.6692629,6.14439007 3.89048977,79.3920247 C24.3184133,78.4191823 42.8410237,83.2492593 84.6267093,100.737665 C167.313878,136.146852 199.898156,165.736052 222.271325,184.168855 C199.413271,183.685278 154.666934,191.928837 154.666934,191.928837 C154.666934,191.928837 87.0568393,208.137187 59.3385258,224.430875 C16.0468442,250.134394 0,287 0,287 L70.52511,286.516423 C70.52511,286.516423 69.0647502,276.816445 75.3910745,264.203629 C81.7116942,251.590813 87.3534748,247.278448 121.597771,232.190857 C148.500337,220.334697 192.294017,222.217801 216.275863,225.836092 C232.459616,228.28242 240.012414,214.565912 240.012414,214.565912 C240.012414,214.565912 267.137457,162.71512 269.77295,157.082875 C272.408443,151.45063 269.978313,141.932704 269.978313,141.932704 Z M60.222728,272.282203 C58.4429145,275.826536 58.1234608,283.404466 58.1234608,283.404466 C57.9637339,285.498068 55.8587622,285.014491 55.8587622,285.014491 L17.7068625,285.173787 C17.7068625,285.173787 15.4421639,285.173787 15.927049,283.398776 C17.5414311,278.23873 22.7154403,269.375055 24.1700955,266.792187 C25.6247508,264.215008 27.4045643,265.017176 27.4045643,265.017176 L59.4126847,270.012238 C59.4126847,270.029305 61.1924982,270.512882 60.222728,272.282203 Z M70.7532912,254.526408 C70.7532912,254.526408 64.6437391,262.366038 63.7652414,265.193539 C62.8924483,268.02104 61.1468619,266.502041 61.1468619,266.502041 L29.9316713,260.84135 C28.186085,260.403286 30.3709201,258.884287 30.3709201,258.884287 C30.3709201,258.884287 41.9397079,245.167778 43.9077709,243.864966 C45.8701294,242.556464 47.3989435,242.994528 47.3989435,242.994528 C47.3989435,242.994528 66.8285743,251.050345 69.6637259,251.920783 C72.4988775,252.785532 70.7532912,254.526408 70.7532912,254.526408 Z M87.7699056,241.560865 C87.7699056,241.560865 77.8440226,247.346717 76.0128683,249.480144 C74.181714,251.61357 73.2632846,250.242488 73.2632846,250.242488 L51.7286822,238.517177 C51.7286822,238.517177 50.8102528,238.363571 52.4930892,236.844571 C54.1759257,235.325572 68.6825467,227.09908 71.278108,226.029522 C73.8736694,224.965654 74.3300318,226.029522 74.3300318,226.029522 C74.3300318,226.029522 86.549136,237.754833 88.0722457,239.433128 C89.5953553,241.111424 87.7699056,241.560865 87.7699056,241.560865 Z M108.454533,230.842532 C108.454533,230.842532 96.6119278,236.827504 94.7180237,237.7719 C92.8241195,238.716297 91.7174406,237.299702 91.7174406,237.299702 L78.9278834,223.913163 C77.6671821,222.496568 79.2416325,222.02437 79.2416325,222.02437 C79.2416325,222.02437 93.6113447,215.885792 96.6119278,214.463507 C99.6125108,213.046912 99.7722376,214.622803 99.7722376,214.622803 C99.7722376,214.622803 108.300511,226.433451 109.561212,228.48154 C110.821913,230.529629 108.454533,230.842532 108.454533,230.842532 Z M129.606932,223.08255 C129.606932,223.08255 118.774029,227.195795 116.195581,228.054855 C113.617133,228.913915 112.926885,227.025121 112.926885,227.025121 L103.987886,213.479287 C103.297637,211.937531 104.501293,211.419819 104.501293,211.419819 C104.501293,211.419819 117.809963,206.914023 122.21386,205.759128 C125.551011,204.883001 125.482556,206.271151 125.482556,206.271151 C125.482556,206.271151 129.26466,216.386436 130.468316,219.304963 C131.671972,222.22349 129.606932,223.08255 129.606932,223.08255 Z M152.636121,199.569348 C152.636121,199.569348 151.763328,212.221988 151.905941,215.277054 C152.054259,218.33212 150.736513,217.603911 150.736513,217.603911 L136.440959,220.51106 C134.547055,221.239269 134.547055,219.202558 134.547055,219.202558 C134.547055,219.202558 131.044474,205.963937 130.610929,204.36529 C130.177385,202.766642 131.63204,202.766642 131.63204,202.766642 C131.63204,202.766642 150.154651,198.403075 151.61501,198.255157 C153.069666,198.112929 152.636121,199.569348 152.636121,199.569348 Z M49.543847,69.2710505 C45.6248346,68.6167998 29.6179221,63.0812698 16.8797056,64.0598014 C13.9418724,63.0812698 15.5733681,60.4756453 15.5733681,60.4756453 L32.5557553,17.4771503 C32.5557553,17.4771503 32.8809135,14.5472449 36.799926,14.217275 C40.7189384,13.8929942 72.7327633,17.8014311 72.7327633,17.8014311 C72.7327633,17.8014311 76.3266175,17.1471804 74.0391008,22.3641187 C71.751584,27.5753679 54.1131759,66.665426 54.1131759,66.665426 C54.1131759,66.665426 53.4628594,69.9253013 49.543847,69.2710505 Z M104.330157,88.8473698 C100.405441,87.4478422 63.9649,73.4696334 63.9649,73.4696334 C63.9649,73.4696334 61.4434975,72.6333303 62.8411075,68.997972 L83.8680067,24.2642904 C83.8680067,24.2642904 84.9917992,20.628932 89.4755602,22.0284596 C93.9593211,23.4279873 129.281774,36.2854361 129.281774,36.2854361 C129.281774,36.2854361 132.082698,37.6849638 130.96461,40.7570976 C129.840818,43.8349205 108.819623,87.4478422 108.819623,87.4478422 C108.819623,87.4478422 108.254874,90.2468974 104.330157,88.8473698 Z M158.044016,116.781031 L118.505916,95.7027795 C116.766034,94.2122257 118.254916,91.7374513 118.254916,91.7374513 C118.254916,91.7374513 137.65032,51.8110901 140.137495,46.6055301 C142.62467,41.39997 146.355433,44.8703434 146.355433,44.8703434 C146.355433,44.8703434 178.186713,62.7285434 182.41377,65.4536398 C186.640827,68.1787363 184.649946,70.9095219 184.649946,70.9095219 C184.649946,70.9095219 165.254543,111.086205 163.018367,115.051533 C160.782191,119.011172 158.044016,116.781031 158.044016,116.781031 Z M202.237014,146.745714 C196.235848,141.506019 170.964778,124.791335 170.964778,124.791335 C168.711488,122.544126 170.713778,120.302606 170.713778,120.302606 C170.713778,120.302606 189.977978,81.1329005 192.225563,76.6441717 C194.478852,72.1554428 197.228436,75.1479287 197.228436,75.1479287 C197.228436,75.1479287 222.9958,95.6060642 226.498382,98.8488721 C229.749964,101.096081 227.25138,104.088567 227.25138,104.088567 C227.25138,104.088567 207.490886,142.507307 206.486889,145.750115 C205.488596,148.992923 203.988304,148.247646 202.237014,146.745714 Z M212.967235,155.194082 C210.308924,152.491742 213.018576,150.107993 213.018576,150.107993 C213.018576,150.107993 230.594235,113.970597 232.761956,109.646853 C234.929678,105.31742 236.669559,108.782105 236.669559,108.782105 C236.669559,108.782105 253.161357,128.904581 254.678762,131.072142 C256.196167,133.234014 254.895534,136.050137 254.895534,136.050137 C254.895534,136.050137 236.669559,171.538971 235.289063,174.542835 C233.908567,177.5467 231.832118,173.695154 231.832118,173.695154 L212.967235,155.194082 Z M172.368092,214.452129 C172.368092,214.452129 172.248297,215.299811 170.787937,215.424972 C169.327577,215.550133 156.42393,216.517286 156.42393,216.517286 C156.42393,216.517286 155.448455,217.126023 155.32866,215.180339 C155.208865,213.234654 157.273905,198.061726 157.273905,198.061726 C157.273905,198.061726 156.908815,196.84994 158.48897,196.724779 C158.48897,196.724779 167.131333,194.784784 177.599147,193.931413 C179.059506,193.811941 179.304801,194.295518 178.814212,195.387832 C178.329327,196.485836 172.368092,214.452129 172.368092,214.452129 Z M191.717859,215.424972 L175.893492,215.060867 C175.528402,214.452129 176.138787,213.604448 176.138787,213.604448 C176.138787,213.604448 182.835906,196.002259 183.320791,194.301207 C183.805676,192.600155 184.78115,192.96426 184.78115,192.96426 C184.78115,192.96426 200.605518,191.991418 202.550763,192.116579 C204.496008,192.24174 203.646033,193.208893 203.646033,193.208893 C203.646033,193.208893 194.638579,211.903396 193.788604,213.968553 C192.938629,216.02802 191.717859,215.424972 191.717859,215.424972 Z M214.701413,216.722095 C214.701413,216.722095 200.223314,216.073533 198.437796,215.908548 C196.646574,215.743563 197.78748,214.287144 197.78748,214.287144 L208.198248,192.713938 C208.848564,191.092534 209.664312,191.416815 209.664312,191.416815 L227.068835,190.443972 L228.534899,192.554642 C228.534899,192.554642 218.289562,212.347149 217.314088,214.77641 C216.338613,217.205671 214.701413,216.722095 214.701413,216.722095 Z M235.694085,213.7865 C235.694085,213.7865 225.134999,216.42057 222.162939,216.75054 C219.190878,217.08051 220.845192,214.11647 220.845192,214.11647 L230.748257,195.023727 C234.05118,197.657798 239.327871,208.51836 239.327871,208.51836 L235.694085,213.7865 Z M265.334825,161.355417 L245.819626,198.983367 C245.819626,198.983367 245.494468,191.524908 240.291936,184.709323 C236.064879,181.142234 239.316462,177.575145 239.316462,177.575145 L257.205869,141.89288 C259.156819,138.325791 259.481977,138.974353 260.78261,140.595757 C266.635458,153.896958 265.334825,161.355417 265.334825,161.355417 Z" id="Shape"></path>
                </g>
            </g>
        </g>
    </g>
</svg>