<?xml version="1.0" encoding="utf-8"?>
<!-- Generator: Adobe Illustrator 23.0.3, SVG Export Plug-In . SVG Version: 6.00 Build 0)  -->
<svg version="1.1" id="Layer_1" xmlns="http://www.w3.org/2000/svg" xmlns:xlink="http://www.w3.org/1999/xlink" x="0px" y="0px"
	 viewBox="0 0 612 792" style="enable-background:new 0 0 612 792;" xml:space="preserve">
<path d="M543.85,429.59c0,0-4.33-74.72-164.6-174.34s-255.56-71.47-255.56-71.47s-1.1,7.13-46.29,135.88
	c35.81-1.71,68.28,6.78,141.53,37.52C363.88,419.42,421,471.43,460.22,503.83c-40.07-0.85-118.51,13.64-118.51,13.64
	s-118.52,28.49-167.11,57.13C98.71,619.78,70.58,684.58,70.58,684.58l123.63-0.85c0,0-2.56-17.05,8.53-39.22
	c11.08-22.17,20.97-29.75,81-56.27c47.16-20.84,123.93-17.53,165.97-11.17c28.37,4.3,41.61-19.81,41.61-19.81
	s47.55-91.14,52.17-101.04S543.85,429.59,543.85,429.59z M176.15,658.71c-3.12,6.23-3.68,19.55-3.68,19.55
	c-0.28,3.68-3.97,2.83-3.97,2.83l-66.88,0.28c0,0-3.97,0-3.12-3.12c2.83-9.07,11.9-24.65,14.45-29.19c2.55-4.53,5.67-3.12,5.67-3.12
	l56.11,8.78C174.73,654.75,177.85,655.6,176.15,658.71z M194.61,627.5c0,0-10.71,13.78-12.25,18.75c-1.53,4.97-4.59,2.3-4.59,2.3
	l-54.72-9.95c-3.06-0.77,0.77-3.44,0.77-3.44s20.28-24.11,23.73-26.4c3.44-2.3,6.12-1.53,6.12-1.53s34.06,14.16,39.03,15.69
	C197.67,624.44,194.61,627.5,194.61,627.5z M224.44,604.71c0,0-17.4,10.17-20.61,13.92s-4.82,1.34-4.82,1.34l-37.75-20.61
	c0,0-1.61-0.27,1.34-2.94s28.38-17.13,32.93-19.01c4.55-1.87,5.35,0,5.35,0s21.42,20.61,24.09,23.56S224.44,604.71,224.44,604.71z
	 M260.7,585.87c0,0-20.76,10.52-24.08,12.18c-3.32,1.66-5.26-0.83-5.26-0.83l-22.42-23.53c-2.21-2.49,0.55-3.32,0.55-3.32
	s25.19-10.79,30.45-13.29c5.26-2.49,5.54,0.28,5.54,0.28s14.95,20.76,17.16,24.36C264.85,585.32,260.7,585.87,260.7,585.87z
	 M297.78,572.23c0,0-18.99,7.23-23.51,8.74c-4.52,1.51-5.73-1.81-5.73-1.81l-15.67-23.81c-1.21-2.71,0.9-3.62,0.9-3.62
	s23.33-7.92,31.05-9.95c5.85-1.54,5.73,0.9,5.73,0.9s6.63,17.78,8.74,22.91C301.4,570.72,297.78,572.23,297.78,572.23z
	 M338.15,530.9c0,0-1.53,22.24-1.28,27.61c0.26,5.37-2.05,4.09-2.05,4.09l-25.06,5.11c-3.32,1.28-3.32-2.3-3.32-2.3
	s-6.14-23.27-6.9-26.08s1.79-2.81,1.79-2.81s32.47-7.67,35.03-7.93C338.91,528.34,338.15,530.9,338.15,530.9z M157.43,301.87
	c-6.87-1.15-34.93-10.88-57.26-9.16c-5.15-1.72-2.29-6.3-2.29-6.3l29.77-75.58c0,0,0.57-5.15,7.44-5.73
	c6.87-0.57,62.99,6.3,62.99,6.3s6.3-1.15,2.29,8.02c-4.01,9.16-34.93,77.87-34.93,77.87S164.3,303.02,157.43,301.87z M253.47,336.28
	c-6.88-2.46-70.76-27.03-70.76-27.03s-4.42-1.47-1.97-7.86l36.86-78.63c0,0,1.97-6.39,9.83-3.93c7.86,2.46,69.78,25.06,69.78,25.06
	s4.91,2.46,2.95,7.86c-1.97,5.41-38.82,82.07-38.82,82.07S260.35,338.74,253.47,336.28z M347.63,385.38l-69.31-37.05
	c-3.05-2.62-0.44-6.97-0.44-6.97s34-70.18,38.36-79.33c4.36-9.15,10.9-3.05,10.9-3.05s55.8,31.39,63.21,36.18
	c7.41,4.79,3.92,9.59,3.92,9.59s-34,70.62-37.92,77.59C352.43,389.3,347.63,385.38,347.63,385.38z M425.1,438.05
	c-10.52-9.21-54.82-38.59-54.82-38.59c-3.95-3.95-0.44-7.89-0.44-7.89s33.77-68.85,37.71-76.74c3.95-7.89,8.77-2.63,8.77-2.63
	s45.17,35.96,51.31,41.66c5.7,3.95,1.32,9.21,1.32,9.21s-34.64,67.53-36.4,73.23C430.8,442,428.17,440.69,425.1,438.05z
	 M443.91,452.9c-4.66-4.75,0.09-8.94,0.09-8.94s30.81-63.52,34.61-71.12c3.8-7.61,6.85-1.52,6.85-1.52s28.91,35.37,31.57,39.18
	c2.66,3.8,0.38,8.75,0.38,8.75s-31.95,62.38-34.37,67.66c-2.42,5.28-6.06-1.49-6.06-1.49L443.91,452.9z M372.74,557.06
	c0,0-0.21,1.49-2.77,1.71s-25.18,1.92-25.18,1.92s-1.71,1.07-1.92-2.35s3.41-30.09,3.41-30.09s-0.64-2.13,2.13-2.35
	c0,0,15.15-3.41,33.5-4.91c2.56-0.21,2.99,0.64,2.13,2.56C383.19,525.48,372.74,557.06,372.74,557.06z M406.66,558.77l-27.74-0.64
	c-0.64-1.07,0.43-2.56,0.43-2.56s11.74-30.94,12.59-33.93c0.85-2.99,2.56-2.35,2.56-2.35s27.74-1.71,31.15-1.49s1.92,1.92,1.92,1.92
	s-15.79,32.86-17.28,36.49C408.8,559.83,406.66,558.77,406.66,558.77z M446.95,561.05c0,0-25.38-1.14-28.51-1.43
	c-3.14-0.29-1.14-2.85-1.14-2.85l18.25-37.92c1.14-2.85,2.57-2.28,2.57-2.28l30.51-1.71l2.57,3.71c0,0-17.96,34.79-19.67,39.06
	S446.95,561.05,446.95,561.05z M483.75,555.89c0,0-18.51,4.63-23.72,5.21s-2.31-4.63-2.31-4.63l17.36-33.56
	c5.79,4.63,15.04,23.72,15.04,23.72L483.75,555.89z M535.71,463.73l-34.21,66.14c0,0-0.57-13.11-9.69-25.09
	c-7.41-6.27-1.71-12.54-1.71-12.54l31.36-62.72c3.42-6.27,3.99-5.13,6.27-2.28C537.99,450.62,535.71,463.73,535.71,463.73z"/>
</svg>
